# xmcd
#
# Track frame offsets:
# 150
# 17218
# 30538
# 43789
# 61094
# 75646
# 93329
# 107910
# 120718
# 134348
# 151764
# 179182
# 191174
# 207903
# 222261
# 233251
# 243425
# 260930
#
# Disc length: 3633 seconds
#
#
# Revision: 0
# Processed by: cddbd v1.5.2PL0 Copyright (c) Steve Scherf et al.
# Submitted via: FreeRIP 2.96 
#
DISCID=fd0e2f12
DTITLE=Soultime
DYEAR=1900
DGENRE=Soul
TTITLE0=Joe Tex - That's The Way
TTITLE1=Ann Sexton - You're Letting Me Down
TTITLE2=C. Smith and J. Cooper - My Great Loss
TTITLE3=The Spark - Help Me
TTITLE4=Johnny Robinson - Don't Take It So Hard
TTITLE5=King Floyd - Handle Me With Care
TTITLE6=Eddie Floyd - Girl, I Love You
TTITLE7=The Dells - Oh'What A Night
TTITLE8=Arthur Conley - Let Nothing Seperate Us
TTITLE9=Jerry Butler - Strawberry
TTITLE10=War - Grovin'
TTITLE11=The Box Tops - The Door You Closed To Me
TTITLE12=Fleed Wood Mac - I Need You Love So Bad
TTITLE13=Stealers Wheel - Late Again
TTITLE14=Johnny Tillotson - True, True Happiness
TTITLE15=Jimmy James - Thinking Of You
TTITLE16=Tommy Sears - A Walk On The Outside
TTITLE17=M. Collier - Everybody Makes A Mistake Sometime
EXTD=
EXTT0=
EXTT1=
EXTT2=
EXTT3=
EXTT4=
EXTT5=
EXTT6=
EXTT7=
EXTT8=
EXTT9=
EXTT10=
EXTT11=
EXTT12=
EXTT13=
EXTT14=
EXTT15=
EXTT16=
EXTT17=
PLAYORDER=
